<svg width="1250" height="1250" viewBox="0 0 1250 1250" fill="none" xmlns="http://www.w3.org/2000/svg">
<g opacity="0.6">
<g opacity="0.58">
<rect x="419.175" y="541.286" width="191.501" height="159.235" rx="8" transform="rotate(45 419.175 541.286)" fill="#EBE9E9"/>
<rect x="507.984" y="452.478" width="191.501" height="102.974" rx="8" transform="rotate(45 507.984 452.478)" fill="#EBE9E9"/>
<rect x="531.839" y="298.716" width="375.217" height="102.974" rx="8" transform="rotate(45 531.839 298.716)" fill="#EBE9E9"/>
<rect x="491.25" y="153.251" width="105.092" height="177.133" rx="8" transform="rotate(45 491.25 153.251)" fill="#EBE9E9"/>
<rect x="632.497" y="12.0043" width="105.092" height="177.133" rx="8" transform="rotate(45 632.497 12.0043)" fill="#EBE9E9"/>
<rect x="871.063" y="533.064" width="105.092" height="177.133" rx="8" transform="rotate(45 871.063 533.064)" fill="#EBE9E9"/>
<rect x="1012.31" y="391.817" width="105.092" height="177.133" rx="8" transform="rotate(45 1012.31 391.817)" fill="#EBE9E9"/>
<rect x="129.852" y="509.145" width="135.452" height="142.66" rx="8" transform="rotate(45 129.852 509.145)" fill="#EBE9E9"/>
<rect x="242.695" y="621.988" width="135.452" height="80.5463" rx="8" transform="rotate(45 242.695 621.988)" fill="#EBE9E9"/>
<rect x="170.296" y="694.387" width="135.452" height="80.5463" rx="8" transform="rotate(45 170.296 694.387)" fill="#EBE9E9"/>
<rect x="363.794" y="743.088" width="87.9662" height="142.66" rx="8" transform="rotate(45 363.794 743.088)" fill="#EBE9E9"/>
<rect x="451.316" y="830.61" width="191.501" height="142.66" rx="8" transform="rotate(45 451.316 830.61)" fill="#EBE9E9"/>
<rect x="548.488" y="1041.69" width="191.501" height="62.1137" rx="8" transform="rotate(45 548.488 1041.69)" fill="#EBE9E9"/>
<rect x="605.443" y="984.737" width="191.501" height="62.1137" rx="8" transform="rotate(45 605.443 984.737)" fill="#EBE9E9"/>
<rect x="668.716" y="613.21" width="191.501" height="284.829" rx="8" transform="rotate(45 668.716 613.21)" fill="#EBE9E9"/>
<rect x="872.797" y="717.382" width="146.859" height="355.476" rx="8" transform="rotate(45 872.797 717.382)" fill="#EBE9E9"/>
<rect x="1114.09" y="476.09" width="146.859" height="322.176" rx="8" transform="rotate(45 1114.09 476.09)" fill="#EBE9E9"/>
<rect x="734.648" y="96.6479" width="146.859" height="263.672" rx="8" transform="rotate(45 734.648 96.6479)" fill="#EBE9E9"/>
<rect x="857.579" y="219.578" width="146.859" height="263.672" rx="8" transform="rotate(45 857.579 219.578)" fill="#EBE9E9"/>
<rect x="978.679" y="340.678" width="33.4737" height="263.672" rx="8" transform="rotate(45 978.679 340.678)" fill="#EBE9E9"/>
<rect x="347.251" y="291.746" width="191.501" height="284.829" rx="8" transform="rotate(45 347.251 291.746)" fill="#EBE9E9"/>
<g opacity="0.4">
<rect x="421.152" y="567.051" width="152.268" height="125.594" rx="16" transform="rotate(45 421.152 567.051)" fill="#F3B2D0"/>
<rect x="509.172" y="471.056" width="102.127" height="78.3816" rx="16" transform="rotate(45 509.172 471.056)" fill="#F3B2D0"/>
<rect x="593.714" y="555.598" width="44.9748" height="44.1209" rx="16" transform="rotate(45 593.714 555.598)" fill="#F3B2D0"/>
<rect x="536.956" y="320.556" width="337.093" height="79.3246" rx="16" transform="rotate(45 536.956 320.556)" fill="#F3B2D0"/>
<rect x="491.59" y="169.503" width="81.6289" height="154.63" rx="16" transform="rotate(45 491.59 169.503)" fill="#F3B2D0"/>
<rect x="632.836" y="28.256" width="81.6289" height="154.63" rx="16" transform="rotate(45 632.836 28.256)" fill="#F3B2D0"/>
<rect x="875.042" y="551.1" width="73.9584" height="157.252" rx="16" transform="rotate(45 875.042 551.1)" fill="#F3B2D0"/>
<rect x="1016.29" y="409.853" width="73.9584" height="157.252" rx="16" transform="rotate(45 1016.29 409.853)" fill="#F3B2D0"/>
<rect x="128.643" y="533.998" width="102.014" height="105.804" rx="16" transform="rotate(45 128.643 533.998)" fill="#F3B2D0"/>
<rect x="250.746" y="646.687" width="89.1363" height="57.0037" rx="16" transform="rotate(45 250.746 646.687)" fill="#F3B2D0"/>
<rect x="171.224" y="726.209" width="89.1363" height="36.8555" rx="16" transform="rotate(45 171.224 726.209)" fill="#F3B2D0"/>
<rect x="364.634" y="769.989" width="48.7334" height="105.804" rx="16" transform="rotate(45 364.634 769.989)" fill="#F3B2D0"/>
<rect x="460.931" y="866.286" width="127.451" height="105.804" rx="16" transform="rotate(45 460.931 866.286)" fill="#F3B2D0"/>
<rect x="556.805" y="1073.24" width="135.123" height="29.258" rx="14.629" transform="rotate(45 556.805 1073.24)" fill="#F3B2D0"/>
<rect x="617.052" y="1012.99" width="135.123" height="38.5711" rx="16" transform="rotate(45 617.052 1012.99)" fill="#F3B2D0"/>
<rect x="670.244" y="633.698" width="160.367" height="89.5674" rx="16" transform="rotate(45 670.244 633.698)" fill="#F3B2D0"/>
<rect x="597.951" y="705.99" width="160.367" height="89.5674" rx="16" transform="rotate(45 597.951 705.99)" fill="#F3B2D0"/>
<rect x="525.657" y="778.284" width="96.1353" height="53.693" rx="16" transform="rotate(45 525.657 778.284)" fill="#F3B2D0"/>
<rect x="603.382" y="856.008" width="50.4481" height="53.693" rx="16" transform="rotate(45 603.382 856.008)" fill="#F3B2D0"/>
<rect x="878.574" y="741.904" width="104.011" height="119.91" rx="16" transform="rotate(45 878.574 741.904)" fill="#F3B2D0"/>
<rect x="779.684" y="840.794" width="104.011" height="119.91" rx="16" transform="rotate(45 779.684 840.794)" fill="#F3B2D0"/>
<rect x="680.794" y="939.684" width="104.011" height="49.2635" rx="16" transform="rotate(45 680.794 939.684)" fill="#F3B2D0"/>
<rect x="1120.91" y="499.572" width="104.011" height="298.607" rx="16" transform="rotate(45 1120.91 499.572)" fill="#F3B2D0"/>
<rect x="727.223" y="119.568" width="124.946" height="235.512" rx="16" transform="rotate(45 727.223 119.568)" fill="#F3B2D0"/>
<rect x="852.26" y="244.605" width="118.987" height="235.512" rx="16" transform="rotate(45 852.26 244.605)" fill="#F3B2D0"/>
<rect x="973.205" y="361.029" width="12.435" height="236.971" rx="6.2175" transform="rotate(45 973.205 361.029)" fill="#F3B2D0"/>
<rect x="352.069" y="315.523" width="151.062" height="138.548" rx="16" transform="rotate(45 352.069 315.523)" fill="#F3B2D0"/>
<rect x="242.117" y="425.475" width="151.062" height="92.8663" rx="16" transform="rotate(45 242.117 425.475)" fill="#F3B2D0"/>
</g>
</g>
</g>
<path d="M570.5 940.5L445 815L662.5 597.5L729.5 662L927.5 464" stroke="#FFEB8C" stroke-width="6" stroke-linecap="round" stroke-linejoin="round"/>
<g filter="url(#filter0_d)">
<g opacity="0.2" filter="url(#filter1_d)">
<circle cx="570.5" cy="942.5" r="22.5" fill="#EB008C"/>
</g>
<circle cx="570.5" cy="942.5" r="17.5" fill="#EB008C"/>
</g>
<path d="M928.405 424C924.054 424 919.881 425.728 916.805 428.805C913.728 431.881 912 436.054 912 440.405C912 447.675 922.559 460.878 926.734 465.816C926.94 466.059 927.196 466.254 927.484 466.387C927.773 466.521 928.087 466.59 928.405 466.59C928.723 466.59 929.037 466.521 929.326 466.387C929.614 466.254 929.87 466.059 930.076 465.816C934.246 460.878 944.81 447.675 944.81 440.405C944.81 438.251 944.386 436.117 943.561 434.127C942.737 432.137 941.528 430.328 940.005 428.805C938.482 427.282 936.673 426.073 934.683 425.249C932.693 424.424 930.559 424 928.405 424V424ZM928.405 445.874C927.323 445.874 926.266 445.553 925.367 444.952C924.467 444.351 923.766 443.497 923.353 442.498C922.939 441.499 922.83 440.399 923.041 439.338C923.252 438.277 923.773 437.303 924.538 436.538C925.303 435.773 926.277 435.252 927.338 435.041C928.399 434.83 929.499 434.939 930.498 435.353C931.497 435.766 932.351 436.467 932.952 437.367C933.553 438.266 933.874 439.323 933.874 440.405C933.874 441.855 933.298 443.246 932.272 444.272C931.246 445.298 929.855 445.874 928.405 445.874V445.874Z" fill="#EB008C"/>
<defs>
<filter id="filter0_d" x="543" y="911" width="63" height="63" filterUnits="userSpaceOnUse" color-interpolation-filters="sRGB">
<feFlood flood-opacity="0" result="BackgroundImageFix"/>
<feColorMatrix in="SourceAlpha" type="matrix" values="0 0 0 0 0 0 0 0 0 0 0 0 0 0 0 0 0 0 127 0"/>
<feOffset dx="4"/>
<feGaussianBlur stdDeviation="4.5"/>
<feColorMatrix type="matrix" values="0 0 0 0 0.952941 0 0 0 0 0.698039 0 0 0 0 0.815686 0 0 0 0.5 0"/>
<feBlend mode="normal" in2="BackgroundImageFix" result="effect1_dropShadow"/>
<feBlend mode="normal" in="SourceGraphic" in2="effect1_dropShadow" result="shape"/>
</filter>
<filter id="filter1_d" x="543" y="911" width="63" height="63" filterUnits="userSpaceOnUse" color-interpolation-filters="sRGB">
<feFlood flood-opacity="0" result="BackgroundImageFix"/>
<feColorMatrix in="SourceAlpha" type="matrix" values="0 0 0 0 0 0 0 0 0 0 0 0 0 0 0 0 0 0 127 0"/>
<feOffset dx="4"/>
<feGaussianBlur stdDeviation="4.5"/>
<feColorMatrix type="matrix" values="0 0 0 0 0.952941 0 0 0 0 0.698039 0 0 0 0 0.815686 0 0 0 0.5 0"/>
<feBlend mode="normal" in2="BackgroundImageFix" result="effect1_dropShadow"/>
<feBlend mode="normal" in="SourceGraphic" in2="effect1_dropShadow" result="shape"/>
</filter>
</defs>
</svg>
